#VRML V2.0 utf8
# 3D model generated by easyeda2kicad.py (https://github.com/uPesy/easyeda2kicad.py)

Shape{
    appearance Appearance {
        material  Material 	{
            diffuseColor 0.20392156862745098 0.20392156862745098 0.20392156862745098
            specularColor 0.10196078431372549 0.10196078431372549 0.10196078431372549
            ambientIntensity 0.2039
            transparency 0.0
            shininess 0.5
        }
    }
    geometry IndexedFaceSet {
        ccw TRUE
        solid FALSE
        coord DEF co Coordinate {
            point [
                -0.0253 -0.1083 0.0079, -0.062 -0.1083 0.0079, -0.062 -0.0068 0.0079, 0.189 -0.1181 0.0079, 0.0602 -0.1181 0.0079, 0.0602 -0.1083 0.0079, 0.1969 -0.0068 0.0079, 0.1772 -0.0068 0.0079, 0.1772 0.0134 0.0079, 0.1772 -0.0984 0.0079, 0.1969 -0.1083 0.0079, 0.0787 -0.0984 0.0079, 0.0787 0.0984 0.0079, 0.0787 0.0134 0.0079, 0.0602 0.0134 0.0079, 0.0787 -0.0068 0.0079, 0.0602 -0.0068 0.0079, 0.189 0.1181 0.0079, 0.1929 0.1171 0.0079, 0.1772 0.0984 0.0079, 0.0602 0.1181 0.0079, 0.1958 0.1142 0.0079, 0.1969 0.1102 0.0079, 0.1969 0.0134 0.0079, -0.1969 0.1102 0.0079, -0.1958 0.1142 0.0079, -0.1929 0.1171 0.0079, -0.187 -0.1083 0.0079, -0.187 -0.1181 0.0079, -0.189 -0.1181 0.0079, -0.1929 -0.1171 0.0079, -0.1958 -0.1142 0.0079, -0.1969 -0.1102 0.0079, 0.1958 -0.1142 0.0079, 0.1929 -0.1171 0.0079, 0.1969 -0.1102 0.0079, -0.0787 0.0134 0.0079, -0.0787 0.0984 0.0079, -0.062 0.1181 0.0079, -0.187 0.1181 0.0079, -0.128 0.0984 0.0079, -0.1772 0.0492 0.0079, -0.187 0.0134 0.0079, -0.1772 0.0134 0.0079, -0.1772 -0.0068 0.0079, 0.0194 0.0137 0.0079, 0.0088 0.1181 0.0079, 0.0202 0.0136 0.0079, 0.0311 0.1181 0.0079, 0.0209 0.0134 0.0079, 0.0311 0.0134 0.0079, 0.0287 0.0085 0.0079, 0.0253 0.012 0.0079, 0.03 0.0034 0.0079, 0.0311 -0.0068 0.0079, 0.0294 -0.0003 0.0079, 0.0238 -0.0062 0.0079, 0.0257 -0.0052 0.0079, 0.0268 -0.0042 0.0079, 0.0275 -0.0036 0.0079, 0.0208 -0.0068 0.0079, 0.0311 -0.1083 0.0079, 0.0194 -0.007 0.0079, 0.0184 -0.007 0.0079, 0.0088 -0.1083 0.0079, 0.0169 -0.0068 0.0079, 0.0088 0.0134 0.0079, 0.0182 0.0134 0.0079, 0.0146 0.0127 0.0079, 0.0108 -0.0029 0.0079, 0.0146 -0.006 0.0079, 0.0088 -0.0068 0.0079, 0.0168 -0.0068 0.0079, 0.0126 0.0114 0.0079, 0.0114 0.0103 0.0079, 0.0108 0.0096 0.0079, 0.0239 0.0106 0.0079, 0.0269 0.0078 0.0079, 0.0195 0.0116 0.0079, 0.0282 0.0041 0.0079, 0.0282 0.0033 0.0079, 0.0272 -0.0008 0.0079, 0.0245 -0.0036 0.0079, 0.0206 -0.0049 0.0079, 0.0311 -0.1181 0.0079, 0.0088 -0.1181 0.0079, -0.0061 -0.1083 0.0079, -0.062 -0.1181 0.0079, -0.0253 -0.1181 0.0079, -0.0061 -0.1181 0.0079, -0.0061 -0.0068 0.0079, -0.0253 -0.0068 0.0079, -0.1969 0.0134 0.0079, -0.187 -0.0068 0.0079, -0.1969 -0.0068 0.0079, -0.1969 -0.1083 0.0079, 0.0322 -0.0045 0.0079, 0.0322 -0.0065 0.0079, 0.0416 -0.0065 0.0079, 0.0398 -0.0045 0.0079, 0.0398 0.0132 0.0079, 0.0416 0.0132 0.0079, -0.0061 0.0134 0.0079, -0.0044 0.0111 0.0079, -0.0044 0.0132 0.0079, 0.0068 0.0132 0.0079, 0.0068 -0.0065 0.0079, -0.0044 0.0031 0.0079, 0.005 0.0031 0.0079, 0.005 -0.0045 0.0079, -0.0044 -0.0045 0.0079, -0.0044 0.0051 0.0079, 0.005 0.0051 0.0079, 0.005 0.0111 0.0079, -0.0044 -0.0065 0.0079, 0.0123 -0.0017 0.0079, 0.0123 0.0084 0.0079, 0.0155 -0.0042 0.0079, 0.0155 0.0108 0.0079, 0.0194 -0.005 0.0079, 0.0174 0.0114 0.0079, 0.0187 0.0116 0.0079, -0.0181 0.0125 0.0079, -0.0217 0.0101 0.0079, -0.0253 0.0134 0.0079, -0.0237 0.0062 0.0079, -0.024 0.0031 0.0079, -0.0229 -0.0019 0.0079, -0.0201 -0.0051 0.0079, -0.0119 0.0132 0.0079, -0.015 0.013 0.0079, -0.0161 -0.0064 0.0079, -0.014 -0.0065 0.0079, -0.0079 -0.0065 0.0079, -0.0079 0.0132 0.0079, -0.0433 -0.0065 0.0079, -0.0452 -0.0065 0.0079, -0.0362 0.0132 0.0079, -0.062 0.0134 0.0079, -0.0404 -0.0002 0.0079, -0.0315 -0.0002 0.0079, -0.0285 -0.0065 0.0079, -0.0266 -0.0065 0.0079, -0.0359 0.0132 0.0079, -0.189 0.1181 0.0079, -0.1772 -0.0984 0.0079, -0.0787 -0.0984 0.0079, -0.0787 -0.0068 0.0079, -0.0253 0.1181 0.0079, -0.0061 0.1181 0.0079, 0.1969 -0.1102 0.1929, 0.1969 0.1102 0.1929, 0.189 0.1181 0.1929, -0.189 0.1181 0.1929, -0.1969 -0.1102 0.1929, -0.1969 0.1102 0.1929, -0.189 -0.1181 0.1929, 0.189 -0.1181 0.1929, -0.1328 -0.069 0.2008, -0.1374 -0.0736 0.2008, 0.189 -0.1102 0.2008, -0.189 0.1102 0.2008, -0.1499 -0.0519 0.2008, -0.1436 -0.0503 0.2008, -0.189 -0.1102 0.2008, -0.1436 -0.0753 0.2008, -0.1499 -0.0736 0.2008, 0.189 0.1102 0.2008, -0.1545 -0.069 0.2008, -0.1562 -0.0628 0.2008, -0.1545 -0.0565 0.2008, -0.1374 -0.0519 0.2008, -0.1328 -0.0565 0.2008, -0.1311 -0.0628 0.2008
            ]
        }
        coordIndex [
            0,1,2,-1,3,4,5,-1,6,7,8,-1,7,6,9,-1,9,6,10,-1,9,10,11,-1,12,13,14,-1,14,13,15,-1,14,15,16,-1,16,15,5,-1,17,18,19,-1,17,19,20,-1,18,21,19,-1,19,21,22,-1,19,22,8,-1,8,22,23,-1,8,23,6,-1,24,25,26,-1,27,28,29,-1,29,30,27,-1,27,30,31,-1,27,31,32,-1,33,34,35,-1,35,34,3,-1,35,3,10,-1,10,3,5,-1,10,5,11,-1,11,5,15,-1,36,37,38,-1,38,37,39,-1,37,40,39,-1,39,40,41,-1,39,41,42,-1,42,41,43,-1,42,43,44,-1,45,46,47,-1,47,46,48,-1,47,48,49,-1,50,51,52,-1,51,50,53,-1,53,50,54,-1,53,54,55,-1,54,56,57,-1,57,58,54,-1,54,58,59,-1,54,59,55,-1,56,54,60,-1,60,54,61,-1,60,61,62,-1,62,61,63,-1,63,61,64,-1,63,64,65,-1,66,67,68,-1,69,70,71,-1,71,70,72,-1,68,73,66,-1,66,73,74,-1,66,74,75,-1,76,77,78,-1,78,77,79,-1,78,79,80,-1,80,81,78,-1,78,81,82,-1,78,82,83,-1,61,84,64,-1,64,84,85,-1,64,85,86,-1,28,27,87,-1,87,27,1,-1,87,1,88,-1,88,1,0,-1,88,0,89,-1,72,65,71,-1,71,65,64,-1,71,64,90,-1,90,64,86,-1,90,86,91,-1,92,93,94,-1,94,93,27,-1,94,27,95,-1,95,27,32,-1,50,96,54,-1,54,96,97,-1,54,97,98,-1,99,96,100,-1,100,96,50,-1,100,50,101,-1,101,50,14,-1,101,14,98,-1,98,14,16,-1,98,16,54,-1,54,16,5,-1,54,5,61,-1,61,5,4,-1,61,4,84,-1,90,102,103,-1,103,102,104,-1,104,102,105,-1,105,102,66,-1,105,66,106,-1,107,108,109,-1,109,110,107,-1,107,110,90,-1,107,90,111,-1,111,90,103,-1,111,103,112,-1,112,103,113,-1,110,114,90,-1,90,114,106,-1,90,106,71,-1,71,106,66,-1,71,66,69,-1,69,66,75,-1,69,75,115,-1,115,75,116,-1,115,116,117,-1,117,116,118,-1,117,118,119,-1,119,118,120,-1,119,120,83,-1,83,120,121,-1,83,121,78,-1,122,123,124,-1,123,125,124,-1,124,125,126,-1,124,126,91,-1,91,126,127,-1,91,127,128,-1,102,129,124,-1,124,129,130,-1,124,130,122,-1,128,131,91,-1,91,131,132,-1,91,132,90,-1,90,132,133,-1,90,133,102,-1,102,133,134,-1,102,134,129,-1,85,89,86,-1,86,89,0,-1,86,0,91,-1,91,0,2,-1,91,2,135,-1,135,2,136,-1,136,2,137,-1,137,2,138,-1,137,138,124,-1,139,140,135,-1,135,140,141,-1,135,141,91,-1,91,141,142,-1,91,142,124,-1,124,142,143,-1,124,143,137,-1,26,144,24,-1,24,144,39,-1,24,39,92,-1,92,39,42,-1,92,42,93,-1,93,42,44,-1,93,44,27,-1,27,44,145,-1,27,145,1,-1,1,145,146,-1,1,146,2,-1,52,49,50,-1,50,49,48,-1,50,48,14,-1,14,48,20,-1,14,20,12,-1,12,20,19,-1,146,147,2,-1,2,147,36,-1,2,36,138,-1,138,36,38,-1,138,38,124,-1,124,38,148,-1,124,148,102,-1,102,148,149,-1,102,149,66,-1,66,149,46,-1,66,46,67,-1,67,46,45,-1,150,35,10,-1,22,151,23,-1,23,151,150,-1,23,150,6,-1,6,150,10,-1,152,17,20,-1,20,48,152,-1,152,48,46,-1,152,46,153,-1,153,46,149,-1,153,149,148,-1,148,38,153,-1,153,38,39,-1,153,39,144,-1,95,32,154,-1,155,24,92,-1,155,92,154,-1,154,92,94,-1,154,94,95,-1,29,28,156,-1,156,28,87,-1,87,88,156,-1,156,88,89,-1,156,89,157,-1,157,89,85,-1,85,84,157,-1,157,84,4,-1,157,4,3,-1,158,159,160,-1,161,162,163,-1,160,159,164,-1,164,159,165,-1,164,165,166,-1,161,163,167,-1,166,168,164,-1,164,168,169,-1,164,169,161,-1,161,169,170,-1,161,170,162,-1,163,171,167,-1,167,171,172,-1,167,172,160,-1,160,172,173,-1,160,173,158,-1,
        ]
    }
}
Shape{
    appearance Appearance {
        material  Material 	{
            diffuseColor 0.6470588235294118 0.6196078431372549 0.5882352941176471
            specularColor 0.45098039215686275 0.43529411764705883 0.4117647058823529
            ambientIntensity 0.6242
            transparency 0.0
            shininess 0.5
        }
    }
    geometry IndexedFaceSet {
        ccw TRUE
        solid FALSE
        coord DEF co Coordinate {
            point [
                0.1772 0.0984 0.0079, 0.1772 0.0134 0.0079, 0.1772 0.0984 0.0, 0.1772 -0.0068 0.0079, 0.1772 -0.0984 0.0, 0.1772 -0.0984 0.0079, 0.0787 -0.0984 0.0, 0.0787 -0.0984 0.0079, 0.0787 0.0134 0.0079, 0.0787 0.0984 0.0079, 0.0787 0.0984 0.0, 0.0787 -0.0068 0.0079, -0.0787 0.0984 0.0079, -0.0787 0.0134 0.0079, -0.0787 0.0984 0.0, -0.0787 -0.0068 0.0079, -0.0787 -0.0984 0.0, -0.0787 -0.0984 0.0079, -0.1772 -0.0984 0.0, -0.1772 -0.0984 0.0079, -0.1772 -0.0068 0.0079, -0.1772 0.0492 0.0, -0.1772 0.0134 0.0079, -0.1772 0.0492 0.0079, -0.128 0.0984 0.0079, -0.128 0.0984 0.0
            ]
        }
        coordIndex [
            0,1,2,-1,2,1,3,-1,2,3,4,-1,4,3,5,-1,6,4,7,-1,7,4,5,-1,8,9,10,-1,8,10,11,-1,11,10,6,-1,11,6,7,-1,2,10,0,-1,0,10,9,-1,6,10,4,-1,4,10,2,-1,12,13,14,-1,14,13,15,-1,14,15,16,-1,16,15,17,-1,18,16,19,-1,19,16,17,-1,18,19,20,-1,18,20,21,-1,21,20,22,-1,21,22,23,-1,24,12,25,-1,25,12,14,-1,18,21,16,-1,16,21,25,-1,16,25,14,-1,23,24,21,-1,21,24,25,-1,
        ]
    }
}
Shape{
    appearance Appearance {
        material  Material 	{
            diffuseColor 0.7529411764705882 0.7529411764705882 0.7529411764705882
            specularColor 0.3764705882352941 0.3764705882352941 0.3764705882352941
            ambientIntensity 0.7529
            transparency 0.0
            shininess 0.5
        }
    }
    geometry IndexedFaceSet {
        ccw TRUE
        solid FALSE
        coord DEF co Coordinate {
            point [
                -0.0359 0.0132 0.0157, -0.0362 0.0132 0.0157, -0.0359 0.0132 0.0079, -0.0362 0.0132 0.0079, -0.0452 -0.0065 0.0157, -0.0452 -0.0065 0.0079, -0.0433 -0.0065 0.0157, -0.0433 -0.0065 0.0079, -0.0404 -0.0002 0.0157, -0.0404 -0.0002 0.0079, -0.0315 -0.0002 0.0157, -0.0315 -0.0002 0.0079, -0.0285 -0.0065 0.0157, -0.0285 -0.0065 0.0079, -0.0266 -0.0065 0.0157, -0.0266 -0.0065 0.0079, -0.0395 0.0018 0.0157, -0.0324 0.0018 0.0157, -0.036 0.0093 0.0157, -0.0395 0.0018 0.0079, -0.036 0.0093 0.0079, -0.0324 0.0018 0.0079, -0.014 -0.0065 0.0157, -0.0079 -0.0065 0.0157, -0.014 -0.0065 0.0079, -0.0079 -0.0065 0.0079, -0.0079 0.0132 0.0157, -0.0079 0.0132 0.0079, -0.0119 0.0132 0.0157, -0.0119 0.0132 0.0079, -0.0181 0.0125 0.0157, -0.0181 0.0125 0.0079, -0.015 0.013 0.0079, -0.015 0.013 0.0157, -0.024 0.0031 0.0157, -0.024 0.0031 0.0079, -0.0237 0.0062 0.0079, -0.0237 0.0062 0.0157, -0.0217 0.0101 0.0079, -0.0217 0.0101 0.0157, -0.0161 -0.0064 0.0079, -0.0161 -0.0064 0.0157, -0.0201 -0.0051 0.0079, -0.0201 -0.0051 0.0157, -0.0229 -0.0019 0.0079, -0.0229 -0.0019 0.0157, -0.022 0.0006 0.0157, -0.0204 -0.0023 0.0157, -0.0175 -0.004 0.0157, -0.0147 -0.0044 0.0157, -0.0119 -0.0045 0.0157, -0.0097 -0.0045 0.0157, -0.0097 0.0111 0.0157, -0.011 0.0111 0.0157, -0.0141 0.0111 0.0157, -0.0171 0.0106 0.0157, -0.0193 0.0095 0.0157, -0.0214 0.007 0.0157, -0.0223 0.0031 0.0157, -0.0097 0.0111 0.0079, -0.0097 -0.0045 0.0079, -0.011 0.0111 0.0079, -0.0141 0.0111 0.0079, -0.0171 0.0106 0.0079, -0.0193 0.0095 0.0079, -0.0214 0.007 0.0079, -0.0223 0.0031 0.0079, -0.022 0.0006 0.0079, -0.0204 -0.0023 0.0079, -0.0175 -0.004 0.0079, -0.0147 -0.0044 0.0079, -0.0119 -0.0045 0.0079, 0.0068 -0.0065 0.0157, 0.0068 0.0132 0.0157, 0.0068 -0.0065 0.0079, 0.0068 0.0132 0.0079, -0.0044 0.0132 0.0157, -0.0044 0.0132 0.0079, -0.0044 0.0111 0.0157, -0.0044 0.0111 0.0079, 0.005 0.0111 0.0157, 0.005 0.0111 0.0079, 0.005 0.0051 0.0157, 0.005 0.0051 0.0079, -0.0044 0.0051 0.0157, -0.0044 0.0051 0.0079, -0.0044 0.0031 0.0157, -0.0044 0.0031 0.0079, 0.005 0.0031 0.0157, 0.005 0.0031 0.0079, 0.005 -0.0045 0.0157, 0.005 -0.0045 0.0079, -0.0044 -0.0045 0.0157, -0.0044 -0.0045 0.0079, -0.0044 -0.0065 0.0157, -0.0044 -0.0065 0.0079, 0.0194 0.0137 0.0079, 0.0194 0.0137 0.0157, 0.0182 0.0134 0.0079, 0.0146 0.0127 0.0157, 0.0146 0.0127 0.0079, 0.0126 0.0114 0.0157, 0.0126 0.0114 0.0079, 0.0114 0.0103 0.0157, 0.0114 0.0103 0.0079, 0.0108 0.0096 0.0157, 0.0108 0.0096 0.0079, 0.0123 0.0084 0.0157, 0.0123 0.0084 0.0079, 0.0195 0.0116 0.0157, 0.0195 0.0116 0.0079, 0.0187 0.0116 0.0079, 0.0187 0.0116 0.0157, 0.0174 0.0114 0.0079, 0.0174 0.0114 0.0157, 0.0155 0.0108 0.0079, 0.0155 0.0108 0.0157, 0.0282 0.0033 0.0157, 0.0282 0.0033 0.0079, 0.0282 0.0041 0.0079, 0.0282 0.0041 0.0157, 0.0269 0.0078 0.0079, 0.0269 0.0078 0.0157, 0.0239 0.0106 0.0079, 0.0239 0.0106 0.0157, 0.0194 -0.005 0.0157, 0.0194 -0.005 0.0079, 0.0206 -0.0049 0.0079, 0.0206 -0.0049 0.0157, 0.0245 -0.0036 0.0079, 0.0245 -0.0036 0.0157, 0.0272 -0.0008 0.0079, 0.0272 -0.0008 0.0157, 0.0123 -0.0017 0.0157, 0.0123 -0.0017 0.0079, 0.0155 -0.0042 0.0079, 0.0155 -0.0042 0.0157, 0.0108 -0.0029 0.0157, 0.0108 -0.0029 0.0079, 0.0194 -0.007 0.0157, 0.0194 -0.007 0.0079, 0.0184 -0.007 0.0079, 0.0184 -0.007 0.0157, 0.0169 -0.0068 0.0079, 0.0168 -0.0068 0.0157, 0.0168 -0.0068 0.0079, 0.0146 -0.006 0.0079, 0.0146 -0.006 0.0157, 0.0208 -0.0068 0.0079, 0.0238 -0.0062 0.0157, 0.0238 -0.0062 0.0079, 0.0257 -0.0052 0.0157, 0.0257 -0.0052 0.0079, 0.0268 -0.0042 0.0157, 0.0268 -0.0042 0.0079, 0.0275 -0.0036 0.0157, 0.0275 -0.0036 0.0079, 0.03 0.0034 0.0157, 0.03 0.0034 0.0079, 0.0294 -0.0003 0.0079, 0.0294 -0.0003 0.0157, 0.0202 0.0136 0.0079, 0.0202 0.0136 0.0157, 0.0209 0.0134 0.0079, 0.0253 0.012 0.0157, 0.0253 0.012 0.0079, 0.0287 0.0085 0.0079, 0.0287 0.0085 0.0157, 0.0416 -0.0065 0.0157, 0.0416 0.0132 0.0157, 0.0416 -0.0065 0.0079, 0.0416 0.0132 0.0079, 0.0398 0.0132 0.0157, 0.0398 0.0132 0.0079, 0.0398 -0.0045 0.0157, 0.0398 -0.0045 0.0079, 0.0322 -0.0045 0.0157, 0.0322 -0.0045 0.0079, 0.0322 -0.0065 0.0157, 0.0322 -0.0065 0.0079
            ]
        }
        coordIndex [
            0,1,2,-1,2,1,3,-1,1,4,3,-1,3,4,5,-1,4,6,5,-1,5,6,7,-1,6,8,7,-1,7,8,9,-1,8,10,9,-1,9,10,11,-1,10,12,11,-1,11,12,13,-1,12,14,13,-1,13,14,15,-1,14,0,15,-1,15,0,2,-1,16,4,1,-1,0,17,1,-1,1,17,18,-1,1,18,16,-1,14,12,10,-1,6,4,8,-1,8,4,16,-1,8,16,10,-1,10,16,17,-1,10,17,14,-1,14,17,0,-1,16,18,19,-1,19,18,20,-1,17,16,21,-1,21,16,19,-1,18,17,20,-1,20,17,21,-1,22,23,24,-1,24,23,25,-1,23,26,25,-1,25,26,27,-1,26,28,27,-1,27,28,29,-1,30,31,32,-1,30,32,33,-1,33,32,29,-1,33,29,28,-1,34,35,36,-1,34,36,37,-1,37,36,38,-1,37,38,39,-1,39,38,31,-1,39,31,30,-1,22,24,40,-1,22,40,41,-1,41,40,42,-1,41,42,43,-1,43,42,44,-1,43,44,45,-1,45,44,35,-1,45,35,34,-1,46,47,43,-1,43,47,48,-1,43,48,41,-1,41,48,49,-1,41,49,22,-1,22,49,50,-1,22,50,23,-1,23,50,51,-1,23,51,26,-1,26,51,52,-1,26,52,28,-1,28,52,53,-1,28,53,33,-1,33,53,54,-1,33,54,30,-1,30,54,55,-1,30,55,39,-1,39,55,56,-1,39,56,37,-1,37,56,57,-1,37,57,34,-1,34,57,58,-1,34,58,45,-1,45,58,46,-1,45,46,43,-1,52,51,59,-1,59,51,60,-1,53,52,61,-1,61,52,59,-1,53,61,62,-1,53,62,54,-1,54,62,63,-1,54,63,55,-1,55,63,64,-1,55,64,56,-1,56,64,65,-1,56,65,57,-1,57,65,66,-1,57,66,58,-1,58,66,67,-1,58,67,46,-1,46,67,68,-1,46,68,47,-1,47,68,69,-1,47,69,48,-1,48,69,70,-1,48,70,49,-1,49,70,71,-1,49,71,50,-1,51,50,60,-1,60,50,71,-1,72,73,74,-1,74,73,75,-1,73,76,75,-1,75,76,77,-1,76,78,77,-1,77,78,79,-1,78,80,79,-1,79,80,81,-1,80,82,81,-1,81,82,83,-1,82,84,83,-1,83,84,85,-1,84,86,85,-1,85,86,87,-1,86,88,87,-1,87,88,89,-1,88,90,89,-1,89,90,91,-1,90,92,91,-1,91,92,93,-1,92,94,93,-1,93,94,95,-1,94,72,95,-1,95,72,74,-1,72,94,92,-1,92,90,72,-1,72,90,88,-1,72,88,73,-1,78,76,80,-1,80,76,73,-1,80,73,82,-1,82,73,88,-1,82,88,84,-1,84,88,86,-1,96,97,98,-1,98,97,99,-1,98,99,100,-1,100,99,101,-1,100,101,102,-1,102,101,103,-1,102,103,104,-1,104,103,105,-1,104,105,106,-1,105,107,106,-1,106,107,108,-1,109,110,111,-1,109,111,112,-1,112,111,113,-1,112,113,114,-1,114,113,115,-1,114,115,116,-1,116,115,108,-1,116,108,107,-1,117,118,119,-1,117,119,120,-1,120,119,121,-1,120,121,122,-1,122,121,123,-1,122,123,124,-1,124,123,110,-1,124,110,109,-1,125,126,127,-1,125,127,128,-1,128,127,129,-1,128,129,130,-1,130,129,131,-1,130,131,132,-1,132,131,118,-1,132,118,117,-1,133,134,135,-1,133,135,136,-1,136,135,126,-1,136,126,125,-1,133,137,134,-1,134,137,138,-1,139,140,141,-1,139,141,142,-1,142,141,143,-1,142,143,144,-1,143,145,144,-1,144,145,146,-1,144,146,147,-1,147,146,138,-1,147,138,137,-1,140,139,148,-1,148,139,149,-1,148,149,150,-1,150,149,151,-1,150,151,152,-1,152,151,153,-1,152,153,154,-1,154,153,155,-1,154,155,156,-1,157,158,159,-1,157,159,160,-1,160,159,156,-1,160,156,155,-1,97,96,161,-1,97,161,162,-1,162,161,163,-1,162,163,164,-1,163,165,164,-1,164,165,166,-1,164,166,167,-1,167,166,158,-1,167,158,157,-1,137,133,147,-1,147,133,136,-1,157,160,132,-1,132,160,130,-1,130,160,155,-1,130,155,153,-1,107,105,103,-1,107,103,116,-1,116,103,101,-1,116,101,99,-1,153,151,130,-1,130,151,149,-1,130,149,128,-1,128,149,139,-1,128,139,125,-1,125,139,142,-1,125,142,136,-1,136,142,144,-1,136,144,147,-1,132,117,157,-1,157,117,120,-1,157,120,167,-1,167,120,122,-1,167,122,164,-1,164,122,124,-1,164,124,162,-1,162,124,109,-1,162,109,97,-1,97,109,112,-1,97,112,99,-1,99,112,114,-1,99,114,116,-1,168,169,170,-1,170,169,171,-1,169,172,171,-1,171,172,173,-1,172,174,173,-1,173,174,175,-1,174,176,175,-1,175,176,177,-1,176,178,177,-1,177,178,179,-1,178,168,179,-1,179,168,170,-1,172,169,174,-1,174,169,168,-1,174,168,176,-1,176,168,178,-1,
        ]
    }
}
Shape{
    appearance Appearance {
        material  Material 	{
            diffuseColor 0.20392156862745098 0.20392156862745098 0.20392156862745098
            specularColor 0.10196078431372549 0.10196078431372549 0.10196078431372549
            ambientIntensity 0.2039
            transparency 0.0
            shininess 0.5
        }
    }
    geometry IndexedFaceSet {
        ccw TRUE
        solid FALSE
        coord DEF co Coordinate {
            point [
                -0.036 0.0093 0.0079, -0.0324 0.0018 0.0079, -0.0395 0.0018 0.0079, -0.0097 0.0111 0.0079, -0.0097 -0.0045 0.0079, -0.011 0.0111 0.0079, -0.0119 -0.0045 0.0079, -0.0141 0.0111 0.0079, -0.0147 -0.0044 0.0079, -0.0171 0.0106 0.0079, -0.0175 -0.004 0.0079, -0.0204 -0.0023 0.0079, -0.022 0.0006 0.0079, -0.0223 0.0031 0.0079, -0.0214 0.007 0.0079, -0.0193 0.0095 0.0079
            ]
        }
        coordIndex [
            0,1,2,-1,3,4,5,-1,5,4,6,-1,5,6,7,-1,7,6,8,-1,7,8,9,-1,10,11,8,-1,8,11,12,-1,8,12,13,-1,13,14,8,-1,8,14,15,-1,8,15,9,-1,
        ]
    }
}
Shape{
    appearance Appearance {
        material  Material 	{
            diffuseColor 0.7529411764705882 0.7529411764705882 0.7529411764705882
            specularColor 0.3764705882352941 0.3764705882352941 0.3764705882352941
            ambientIntensity 0.7529
            transparency 0.0
            shininess 0.5
        }
    }
    geometry IndexedFaceSet {
        ccw TRUE
        solid FALSE
        coord DEF co Coordinate {
            point [
                -0.1311 -0.0628 0.1929, -0.1311 -0.0628 0.2008, -0.1328 -0.0565 0.1929, -0.1328 -0.0565 0.2008, -0.1374 -0.0519 0.1929, -0.1374 -0.0519 0.2008, -0.1436 -0.0503 0.1929, -0.1436 -0.0503 0.2008, -0.1499 -0.0519 0.1929, -0.1499 -0.0519 0.2008, -0.1545 -0.0565 0.1929, -0.1545 -0.0565 0.2008, -0.1562 -0.0628 0.1929, -0.1562 -0.0628 0.2008, -0.1545 -0.069 0.1929, -0.1545 -0.069 0.2008, -0.1499 -0.0736 0.1929, -0.1499 -0.0736 0.2008, -0.1436 -0.0753 0.1929, -0.1436 -0.0753 0.2008, -0.1374 -0.0736 0.1929, -0.1374 -0.0736 0.2008, -0.1328 -0.069 0.1929, -0.1328 -0.069 0.2008, -0.1436 -0.0628 0.1929
            ]
        }
        coordIndex [
            0,1,2,-1,2,1,3,-1,2,3,4,-1,4,3,5,-1,4,5,6,-1,6,5,7,-1,6,7,8,-1,8,7,9,-1,8,9,10,-1,10,9,11,-1,10,11,12,-1,12,11,13,-1,12,13,14,-1,14,13,15,-1,14,15,16,-1,16,15,17,-1,16,17,18,-1,18,17,19,-1,18,19,20,-1,20,19,21,-1,20,21,22,-1,22,21,23,-1,22,23,0,-1,0,23,1,-1,20,22,24,-1,24,22,0,-1,24,0,2,-1,14,16,24,-1,24,16,18,-1,24,18,20,-1,8,10,24,-1,24,10,12,-1,24,12,14,-1,2,4,24,-1,24,4,6,-1,24,6,8,-1,
        ]
    }
}
Shape{
    appearance Appearance {
        material  Material 	{
            diffuseColor 0.20392156862745098 0.20392156862745098 0.20392156862745098
            specularColor 0.10196078431372549 0.10196078431372549 0.10196078431372549
            ambientIntensity 0.2039
            transparency 0.0
            shininess 0.5
        }
    }
    geometry IndexedFaceSet {
        ccw TRUE
        solid FALSE
        coord DEF co Coordinate {
            point [
                -0.189 0.1181 0.1929, -0.189 0.1181 0.0079, -0.1929 0.1171 0.0079, -0.1929 0.1171 0.1929, -0.1958 0.1142 0.0079, -0.1958 0.1142 0.1929, -0.1969 0.1102 0.0079, -0.1969 0.1102 0.1929, -0.1958 0.1102 0.1969, -0.1949 0.1136 0.1969, -0.189 0.1102 0.2008, -0.189 0.1142 0.1997, -0.1909 0.1136 0.1997, -0.1924 0.1122 0.1997, -0.1924 0.1161 0.1969, -0.189 0.1171 0.1969, -0.1929 0.1102 0.1997, -0.1969 -0.1102 0.1929, -0.1969 -0.1102 0.0079, -0.1958 -0.1142 0.0079, -0.1958 -0.1142 0.1929, -0.1929 -0.1171 0.0079, -0.1929 -0.1171 0.1929, -0.189 -0.1181 0.0079, -0.189 -0.1181 0.1929, -0.189 -0.1102 0.2008, -0.1929 -0.1102 0.1997, -0.1958 -0.1102 0.1969, 0.189 0.1102 0.2008, 0.189 0.1142 0.1997, 0.189 0.1171 0.1969, 0.189 0.1181 0.1929, 0.1969 0.1102 0.1929, 0.1969 0.1102 0.0079, 0.1958 0.1142 0.0079, 0.1958 0.1142 0.1929, 0.1929 0.1171 0.0079, 0.1929 0.1171 0.1929, 0.189 0.1181 0.0079, -0.189 -0.1171 0.1969, -0.1924 -0.1161 0.1969, -0.1924 -0.1122 0.1997, -0.1909 -0.1136 0.1997, -0.1949 -0.1136 0.1969, -0.189 -0.1142 0.1997, 0.1924 0.1161 0.1969, 0.1929 0.1102 0.1997, 0.1924 0.1122 0.1997, 0.1909 0.1136 0.1997, 0.1949 0.1136 0.1969, 0.1958 0.1102 0.1969, 0.189 -0.1102 0.2008, 0.189 -0.1142 0.1997, 0.189 -0.1171 0.1969, 0.189 -0.1181 0.1929, 0.1929 -0.1102 0.1997, 0.1958 -0.1102 0.1969, 0.1969 -0.1102 0.1929, 0.1949 -0.1136 0.1969, 0.1909 -0.1136 0.1997, 0.1924 -0.1122 0.1997, 0.1924 -0.1161 0.1969, 0.1958 -0.1142 0.1929, 0.1929 -0.1171 0.1929, 0.189 -0.1181 0.0079, 0.1929 -0.1171 0.0079, 0.1958 -0.1142 0.0079, 0.1969 -0.1102 0.0079
            ]
        }
        coordIndex [
            0,1,2,-1,0,2,3,-1,3,2,4,-1,3,4,5,-1,5,4,6,-1,5,6,7,-1,7,8,9,-1,10,11,12,-1,8,13,9,-1,9,13,12,-1,9,12,14,-1,14,12,11,-1,14,11,15,-1,7,9,5,-1,5,9,14,-1,5,14,3,-1,3,14,15,-1,3,15,0,-1,13,10,12,-1,8,16,13,-1,13,16,10,-1,17,18,19,-1,17,19,20,-1,20,19,21,-1,20,21,22,-1,22,21,23,-1,22,23,24,-1,25,10,16,-1,25,16,26,-1,26,16,8,-1,26,8,27,-1,27,8,7,-1,27,7,17,-1,10,28,29,-1,10,29,11,-1,11,29,30,-1,11,30,15,-1,15,30,31,-1,15,31,0,-1,32,33,34,-1,32,34,35,-1,35,34,36,-1,35,36,37,-1,37,36,38,-1,37,38,31,-1,24,39,40,-1,25,26,41,-1,39,42,40,-1,40,42,41,-1,40,41,43,-1,43,41,26,-1,43,26,27,-1,24,40,22,-1,22,40,43,-1,22,43,20,-1,20,43,27,-1,20,27,17,-1,42,25,41,-1,39,44,42,-1,42,44,25,-1,31,30,45,-1,28,46,47,-1,30,48,45,-1,45,48,47,-1,45,47,49,-1,49,47,46,-1,49,46,50,-1,31,45,37,-1,37,45,49,-1,37,49,35,-1,35,49,50,-1,35,50,32,-1,48,28,47,-1,30,29,48,-1,48,29,28,-1,51,25,44,-1,51,44,52,-1,52,44,39,-1,52,39,53,-1,53,39,24,-1,53,24,54,-1,28,51,55,-1,28,55,46,-1,46,55,56,-1,46,56,50,-1,50,56,57,-1,50,57,32,-1,57,56,58,-1,51,52,59,-1,56,60,58,-1,58,60,59,-1,58,59,61,-1,61,59,52,-1,61,52,53,-1,57,58,62,-1,62,58,61,-1,62,61,63,-1,63,61,53,-1,63,53,54,-1,60,51,59,-1,56,55,60,-1,60,55,51,-1,54,64,65,-1,54,65,63,-1,63,65,66,-1,63,66,62,-1,62,66,67,-1,62,67,57,-1,
        ]
    }
}